<svg xmlns="http://www.w3.org/2000/svg" xmlns:xlink="http://www.w3.org/1999/xlink" width="200" zoomAndPan="magnify" viewBox="0 0 150 44.999999" height="60" preserveAspectRatio="xMidYMid meet" version="1.2"><defs/><g id="a0a7abb6ff"><rect x="0" width="150" y="0" height="44.999999" style="fill:#ffffff;fill-opacity:1;stroke:none;"/><rect x="0" width="150" y="0" height="44.999999" style="fill:#ffffff;fill-opacity:1;stroke:none;"/><g style="fill:#333333;fill-opacity:1;"><g transform="translate(17.219889, 20.986693)"><path style="stroke:none" d="M 11.109375 0 L 5.640625 0 L 5.640625 -9.796875 L 0.546875 -9.796875 L 0.546875 -13.015625 L 16.203125 -13.015625 L 16.203125 -9.796875 L 11.109375 -9.796875 Z M 11.109375 0 "/></g></g><g style="fill:#333333;fill-opacity:1;"><g transform="translate(33.963901, 20.986693)"><path style="stroke:none" d="M 19.21875 0 L 14.0625 0 C 13.820312 -0.320312 13.65625 -0.738281 13.5625 -1.25 C 13.476562 -1.644531 13.347656 -2.03125 13.171875 -2.40625 C 13.003906 -2.78125 12.710938 -3.09375 12.296875 -3.34375 C 11.890625 -3.601562 11.273438 -3.738281 10.453125 -3.75 L 6.90625 -3.75 L 6.90625 0 L 1.453125 0 L 1.453125 -13.015625 L 10.328125 -13.015625 C 12.453125 -13.015625 14.164062 -12.851562 15.46875 -12.53125 C 16.769531 -12.21875 17.71875 -11.722656 18.3125 -11.046875 C 18.914062 -10.367188 19.21875 -9.476562 19.21875 -8.375 C 19.21875 -7.46875 19.007812 -6.703125 18.59375 -6.078125 C 18.1875 -5.453125 17.535156 -4.957031 16.640625 -4.59375 C 17.503906 -4.238281 18.0625 -3.8125 18.3125 -3.3125 C 18.570312 -2.8125 18.734375 -2.265625 18.796875 -1.671875 C 18.859375 -1.140625 19 -0.582031 19.21875 0 Z M 6.90625 -6.96875 L 10.03125 -6.96875 C 10.90625 -6.96875 11.59375 -7.007812 12.09375 -7.09375 C 12.59375 -7.175781 12.960938 -7.285156 13.203125 -7.421875 C 13.441406 -7.554688 13.59375 -7.707031 13.65625 -7.875 C 13.726562 -8.039062 13.765625 -8.207031 13.765625 -8.375 C 13.765625 -8.550781 13.726562 -8.722656 13.65625 -8.890625 C 13.59375 -9.066406 13.441406 -9.222656 13.203125 -9.359375 C 12.960938 -9.492188 12.59375 -9.597656 12.09375 -9.671875 C 11.59375 -9.753906 10.90625 -9.796875 10.03125 -9.796875 L 6.90625 -9.796875 Z M 6.90625 -6.96875 "/></g></g><g style="fill:#333333;fill-opacity:1;"><g transform="translate(53.909776, 20.986693)"><path style="stroke:none" d="M 9.15625 0.28125 C 5.976562 0.28125 3.742188 -0.378906 2.453125 -1.703125 C 1.359375 -2.804688 0.8125 -4.40625 0.8125 -6.5 L 0.8125 -13.015625 L 6.28125 -13.015625 L 6.28125 -6.5 C 6.28125 -5.59375 6.429688 -4.875 6.734375 -4.34375 C 7.179688 -3.59375 7.988281 -3.21875 9.15625 -3.21875 C 10.332031 -3.21875 11.140625 -3.59375 11.578125 -4.34375 C 11.878906 -4.882812 12.03125 -5.601562 12.03125 -6.5 L 12.03125 -13.015625 L 17.5 -13.015625 L 17.5 -6.421875 C 17.5 -4.378906 16.957031 -2.804688 15.875 -1.703125 C 14.570312 -0.378906 12.332031 0.28125 9.15625 0.28125 Z M 9.15625 0.28125 "/></g></g><g style="fill:#333333;fill-opacity:1;"><g transform="translate(72.222974, 20.986693)"><path style="stroke:none" d="M 17.125 0 L 1.453125 0 L 1.453125 -13.015625 L 16.40625 -13.015625 L 16.40625 -9.796875 L 6.90625 -9.796875 L 6.90625 -7.75 L 14.9375 -7.75 L 14.9375 -5.25 L 6.90625 -5.25 L 6.90625 -3.21875 L 17.125 -3.21875 Z M 17.125 0 "/></g></g><g style="fill:#8aa1b2;fill-opacity:1;"><g transform="translate(17.216267, 37.826949)"><path style="stroke:none" d="M 11.390625 0 L 0.96875 0 L 0.96875 -8.65625 L 10.921875 -8.65625 L 10.921875 -6.515625 L 4.59375 -6.515625 L 4.59375 -5.15625 L 9.9375 -5.15625 L 9.9375 -3.5 L 4.59375 -3.5 L 4.59375 -2.140625 L 11.390625 -2.140625 Z M 11.390625 0 "/></g></g><g style="fill:#8aa1b2;fill-opacity:1;"><g transform="translate(29.094628, 37.826949)"><path style="stroke:none" d="M 5.71875 0.1875 C 4.550781 0.1875 3.609375 0.0625 2.890625 -0.1875 C 2.171875 -0.4375 1.625 -0.78125 1.25 -1.21875 C 0.875 -1.664062 0.625 -2.175781 0.5 -2.75 L 4.359375 -2.75 C 4.640625 -2.34375 5.09375 -2.140625 5.71875 -2.140625 C 6.34375 -2.140625 6.796875 -2.34375 7.078125 -2.75 C 7.109375 -2.789062 7.125 -2.828125 7.125 -2.859375 C 7.125 -2.972656 6.976562 -3.054688 6.6875 -3.109375 C 6.40625 -3.160156 5.976562 -3.203125 5.40625 -3.234375 C 4.6875 -3.265625 3.925781 -3.335938 3.125 -3.453125 C 1.363281 -3.734375 0.484375 -4.445312 0.484375 -5.59375 C 0.484375 -5.6875 0.488281 -5.785156 0.5 -5.890625 C 0.625 -6.472656 0.875 -6.984375 1.25 -7.421875 C 1.625 -7.859375 2.171875 -8.203125 2.890625 -8.453125 C 3.609375 -8.703125 4.550781 -8.828125 5.71875 -8.828125 C 6.894531 -8.828125 7.835938 -8.703125 8.546875 -8.453125 C 9.265625 -8.203125 9.8125 -7.859375 10.1875 -7.421875 C 10.5625 -6.984375 10.8125 -6.472656 10.9375 -5.890625 L 7.078125 -5.890625 C 6.796875 -6.304688 6.34375 -6.515625 5.71875 -6.515625 C 5.09375 -6.515625 4.640625 -6.304688 4.359375 -5.890625 C 4.335938 -5.859375 4.328125 -5.832031 4.328125 -5.8125 C 4.328125 -5.707031 4.460938 -5.628906 4.734375 -5.578125 C 5.015625 -5.535156 5.421875 -5.5 5.953125 -5.46875 C 6.492188 -5.4375 7.066406 -5.382812 7.671875 -5.3125 C 8.285156 -5.238281 8.851562 -5.113281 9.375 -4.9375 C 9.90625 -4.757812 10.320312 -4.492188 10.625 -4.140625 C 10.851562 -3.867188 10.96875 -3.53125 10.96875 -3.125 C 10.96875 -3 10.957031 -2.875 10.9375 -2.75 C 10.8125 -2.175781 10.5625 -1.664062 10.1875 -1.21875 C 9.8125 -0.78125 9.265625 -0.4375 8.546875 -0.1875 C 7.835938 0.0625 6.894531 0.1875 5.71875 0.1875 Z M 5.71875 0.1875 "/></g></g><g style="fill:#8aa1b2;fill-opacity:1;"><g transform="translate(40.550486, 37.826949)"><path style="stroke:none" d="M 5.71875 0.1875 C 4.550781 0.1875 3.609375 0.0625 2.890625 -0.1875 C 2.171875 -0.4375 1.625 -0.78125 1.25 -1.21875 C 0.875 -1.664062 0.625 -2.175781 0.5 -2.75 L 4.359375 -2.75 C 4.640625 -2.34375 5.09375 -2.140625 5.71875 -2.140625 C 6.34375 -2.140625 6.796875 -2.34375 7.078125 -2.75 C 7.109375 -2.789062 7.125 -2.828125 7.125 -2.859375 C 7.125 -2.972656 6.976562 -3.054688 6.6875 -3.109375 C 6.40625 -3.160156 5.976562 -3.203125 5.40625 -3.234375 C 4.6875 -3.265625 3.925781 -3.335938 3.125 -3.453125 C 1.363281 -3.734375 0.484375 -4.445312 0.484375 -5.59375 C 0.484375 -5.6875 0.488281 -5.785156 0.5 -5.890625 C 0.625 -6.472656 0.875 -6.984375 1.25 -7.421875 C 1.625 -7.859375 2.171875 -8.203125 2.890625 -8.453125 C 3.609375 -8.703125 4.550781 -8.828125 5.71875 -8.828125 C 6.894531 -8.828125 7.835938 -8.703125 8.546875 -8.453125 C 9.265625 -8.203125 9.8125 -7.859375 10.1875 -7.421875 C 10.5625 -6.984375 10.8125 -6.472656 10.9375 -5.890625 L 7.078125 -5.890625 C 6.796875 -6.304688 6.34375 -6.515625 5.71875 -6.515625 C 5.09375 -6.515625 4.640625 -6.304688 4.359375 -5.890625 C 4.335938 -5.859375 4.328125 -5.832031 4.328125 -5.8125 C 4.328125 -5.707031 4.460938 -5.628906 4.734375 -5.578125 C 5.015625 -5.535156 5.421875 -5.5 5.953125 -5.46875 C 6.492188 -5.4375 7.066406 -5.382812 7.671875 -5.3125 C 8.285156 -5.238281 8.851562 -5.113281 9.375 -4.9375 C 9.90625 -4.757812 10.320312 -4.492188 10.625 -4.140625 C 10.851562 -3.867188 10.96875 -3.53125 10.96875 -3.125 C 10.96875 -3 10.957031 -2.875 10.9375 -2.75 C 10.8125 -2.175781 10.5625 -1.664062 10.1875 -1.21875 C 9.8125 -0.78125 9.265625 -0.4375 8.546875 -0.1875 C 7.835938 0.0625 6.894531 0.1875 5.71875 0.1875 Z M 5.71875 0.1875 "/></g></g><g style="fill:#8aa1b2;fill-opacity:1;"><g transform="translate(52.006344, 37.826949)"><path style="stroke:none" d="M 11.390625 0 L 0.96875 0 L 0.96875 -8.65625 L 10.921875 -8.65625 L 10.921875 -6.515625 L 4.59375 -6.515625 L 4.59375 -5.15625 L 9.9375 -5.15625 L 9.9375 -3.5 L 4.59375 -3.5 L 4.59375 -2.140625 L 11.390625 -2.140625 Z M 11.390625 0 "/></g></g><g style="fill:#8aa1b2;fill-opacity:1;"><g transform="translate(63.884705, 37.826949)"><path style="stroke:none" d="M 13.8125 0 L 9.5 0 L 4.59375 -5.859375 L 4.59375 0 L 0.96875 0 L 0.96875 -8.65625 L 5.28125 -8.65625 L 10.1875 -2.828125 L 10.1875 -8.65625 L 13.8125 -8.65625 Z M 13.8125 0 "/></g></g><g style="fill:#8aa1b2;fill-opacity:1;"><g transform="translate(78.666261, 37.826949)"><path style="stroke:none" d="M 7.390625 0 L 3.75 0 L 3.75 -6.515625 L 0.359375 -6.515625 L 0.359375 -8.65625 L 10.78125 -8.65625 L 10.78125 -6.515625 L 7.390625 -6.515625 Z M 7.390625 0 "/></g></g><g style="fill:#8aa1b2;fill-opacity:1;"><g transform="translate(89.808263, 37.826949)"><path style="stroke:none" d="M 4.59375 0 L 0.96875 0 L 0.96875 -8.65625 L 4.59375 -8.65625 Z M 4.59375 0 "/></g></g><g style="fill:#8aa1b2;fill-opacity:1;"><g transform="translate(95.373223, 37.826949)"><path style="stroke:none" d="M 14.546875 0 L 10.859375 0 L 10.046875 -1.421875 L 4.59375 -1.421875 L 3.765625 0 L 0.09375 0 L 5.625 -8.65625 L 9 -8.65625 Z M 8.828125 -3.5625 L 7.3125 -6.1875 L 5.8125 -3.5625 Z M 8.828125 -3.5625 "/></g></g><g style="fill:#8aa1b2;fill-opacity:1;"><g transform="translate(110.009928, 37.826949)"><path style="stroke:none" d="M 11.078125 0 L 0.96875 0 L 0.96875 -8.65625 L 4.59375 -8.65625 L 4.59375 -2.140625 L 11.078125 -2.140625 Z M 11.078125 0 "/></g></g><g style="fill:#8aa1b2;fill-opacity:1;"><g transform="translate(121.326966, 37.826949)"><path style="stroke:none" d="M 5.71875 0.1875 C 4.550781 0.1875 3.609375 0.0625 2.890625 -0.1875 C 2.171875 -0.4375 1.625 -0.78125 1.25 -1.21875 C 0.875 -1.664062 0.625 -2.175781 0.5 -2.75 L 4.359375 -2.75 C 4.640625 -2.34375 5.09375 -2.140625 5.71875 -2.140625 C 6.34375 -2.140625 6.796875 -2.34375 7.078125 -2.75 C 7.109375 -2.789062 7.125 -2.828125 7.125 -2.859375 C 7.125 -2.972656 6.976562 -3.054688 6.6875 -3.109375 C 6.40625 -3.160156 5.976562 -3.203125 5.40625 -3.234375 C 4.6875 -3.265625 3.925781 -3.335938 3.125 -3.453125 C 1.363281 -3.734375 0.484375 -4.445312 0.484375 -5.59375 C 0.484375 -5.6875 0.488281 -5.785156 0.5 -5.890625 C 0.625 -6.472656 0.875 -6.984375 1.25 -7.421875 C 1.625 -7.859375 2.171875 -8.203125 2.890625 -8.453125 C 3.609375 -8.703125 4.550781 -8.828125 5.71875 -8.828125 C 6.894531 -8.828125 7.835938 -8.703125 8.546875 -8.453125 C 9.265625 -8.203125 9.8125 -7.859375 10.1875 -7.421875 C 10.5625 -6.984375 10.8125 -6.472656 10.9375 -5.890625 L 7.078125 -5.890625 C 6.796875 -6.304688 6.34375 -6.515625 5.71875 -6.515625 C 5.09375 -6.515625 4.640625 -6.304688 4.359375 -5.890625 C 4.335938 -5.859375 4.328125 -5.832031 4.328125 -5.8125 C 4.328125 -5.707031 4.460938 -5.628906 4.734375 -5.578125 C 5.015625 -5.535156 5.421875 -5.5 5.953125 -5.46875 C 6.492188 -5.4375 7.066406 -5.382812 7.671875 -5.3125 C 8.285156 -5.238281 8.851562 -5.113281 9.375 -4.9375 C 9.90625 -4.757812 10.320312 -4.492188 10.625 -4.140625 C 10.851562 -3.867188 10.96875 -3.53125 10.96875 -3.125 C 10.96875 -3 10.957031 -2.875 10.9375 -2.75 C 10.8125 -2.175781 10.5625 -1.664062 10.1875 -1.21875 C 9.8125 -0.78125 9.265625 -0.4375 8.546875 -0.1875 C 7.835938 0.0625 6.894531 0.1875 5.71875 0.1875 Z M 5.71875 0.1875 "/></g></g><path style=" stroke:none;fill-rule:nonzero;fill:#8aa1b2;fill-opacity:1;" d="M 90.082031 14.671875 L 91.582031 14.671875 L 91.582031 16.171875 L 90.082031 16.171875 M 93.082031 14.671875 L 94.582031 14.671875 L 94.582031 16.171875 L 93.082031 16.171875 M 96.082031 14.671875 L 97.582031 14.671875 L 97.582031 16.171875 L 96.082031 16.171875 M 99.082031 14.671875 L 100.582031 14.671875 L 100.582031 16.171875 L 99.082031 16.171875 M 102.082031 14.671875 L 103.582031 14.671875 L 103.582031 16.171875 L 102.082031 16.171875 M 105.082031 14.671875 L 106.582031 14.671875 L 106.582031 16.171875 L 105.082031 16.171875 M 108.082031 14.671875 L 109.582031 14.671875 L 109.582031 16.171875 L 108.082031 16.171875 M 111.082031 14.671875 L 112.582031 14.671875 L 112.582031 16.171875 L 111.082031 16.171875 M 114.082031 14.671875 L 115.582031 14.671875 L 115.582031 16.171875 L 114.082031 16.171875 M 117.082031 14.671875 L 118.582031 14.671875 L 118.582031 16.171875 L 117.082031 16.171875 M 120.082031 14.671875 L 121.582031 14.671875 L 121.582031 16.171875 L 120.082031 16.171875 M 123.082031 14.671875 L 124.582031 14.671875 L 124.582031 16.171875 L 123.082031 16.171875 M 126.082031 14.671875 L 127.582031 14.671875 L 127.582031 16.171875 L 126.082031 16.171875 M 129.082031 14.671875 L 130.582031 14.671875 L 130.582031 16.171875 L 129.082031 16.171875 M 132.082031 14.671875 L 132.785156 14.671875 L 132.785156 16.171875 L 132.082031 16.171875 "/><path style="fill:none;stroke-width:2;stroke-linecap:butt;stroke-linejoin:miter;stroke:#333333;stroke-opacity:1;stroke-miterlimit:4;" d="M 6.501399 1.000432 L 147.58857 1.000432 " transform="matrix(0.74962,0,0,0.74962,17.216267,40.476619)"/><path style="fill:none;stroke-width:2;stroke-linecap:round;stroke-linejoin:round;stroke:#333333;stroke-opacity:1;stroke-miterlimit:4;" d="M 0.998609 1.000432 L 4.000131 -2.00109 L 7.001653 1.000432 L 4.000131 4.001954 Z M 0.998609 1.000432 " transform="matrix(0.74962,0,0,0.74962,17.216267,40.476619)"/><path style="fill:none;stroke-width:2;stroke-linecap:round;stroke-linejoin:round;stroke:#333333;stroke-opacity:1;stroke-miterlimit:4;" d="M 153.09136 1.000432 L 150.089838 -2.00109 L 147.088316 1.000432 L 150.089838 4.001954 Z M 153.09136 1.000432 " transform="matrix(0.74962,0,0,0.74962,17.216267,40.476619)"/><path style="fill:none;stroke-width:2;stroke-linecap:butt;stroke-linejoin:miter;stroke:#333333;stroke-opacity:1;stroke-miterlimit:4;" d="M 6.501399 1.000584 L 147.58857 1.000584 " transform="matrix(0.74962,0,0,0.74962,17.216267,3.02338)"/><path style="fill:none;stroke-width:2;stroke-linecap:round;stroke-linejoin:round;stroke:#333333;stroke-opacity:1;stroke-miterlimit:4;" d="M 0.998609 1.000584 L 4.000131 -2.000938 L 7.001653 1.000584 L 4.000131 4.002106 Z M 0.998609 1.000584 " transform="matrix(0.74962,0,0,0.74962,17.216267,3.02338)"/><path style="fill:none;stroke-width:2;stroke-linecap:round;stroke-linejoin:round;stroke:#333333;stroke-opacity:1;stroke-miterlimit:4;" d="M 153.09136 1.000584 L 150.089838 -2.000938 L 147.088316 1.000584 L 150.089838 4.002106 Z M 153.09136 1.000584 " transform="matrix(0.74962,0,0,0.74962,17.216267,3.02338)"/></g></svg>