<svg xmlns="http://www.w3.org/2000/svg" xmlns:xlink="http://www.w3.org/1999/xlink" width="500" zoomAndPan="magnify" viewBox="0 0 375 374.999991" height="500" preserveAspectRatio="xMidYMid meet" version="1.2"><defs/><g id="10745d5854"><rect x="0" width="375" y="0" height="374.999991" style="fill:#ffffff;fill-opacity:1;stroke:none;"/><rect x="0" width="375" y="0" height="374.999991" style="fill:#ffffff;fill-opacity:1;stroke:none;"/><g style="fill:#333333;fill-opacity:1;"><g transform="translate(23.223749, 183.197477)"><path style="stroke:none" d="M 31.578125 0 L 16.046875 0 L 16.046875 -27.859375 L 1.546875 -27.859375 L 1.546875 -37.015625 L 46.0625 -37.015625 L 46.0625 -27.859375 L 31.578125 -27.859375 Z M 31.578125 0 "/></g></g><g style="fill:#333333;fill-opacity:1;"><g transform="translate(70.829118, 183.197477)"><path style="stroke:none" d="M 54.65625 0 L 39.984375 0 C 39.304688 -0.925781 38.832031 -2.113281 38.5625 -3.5625 C 38.320312 -4.675781 37.960938 -5.769531 37.484375 -6.84375 C 37.003906 -7.914062 36.171875 -8.8125 34.984375 -9.53125 C 33.804688 -10.25 32.054688 -10.628906 29.734375 -10.671875 L 19.65625 -10.671875 L 19.65625 0 L 4.125 0 L 4.125 -37.015625 L 29.375 -37.015625 C 35.414062 -37.015625 40.285156 -36.5625 43.984375 -35.65625 C 47.691406 -34.757812 50.394531 -33.34375 52.09375 -31.40625 C 53.800781 -29.46875 54.65625 -26.941406 54.65625 -23.828125 C 54.65625 -21.234375 54.066406 -19.050781 52.890625 -17.28125 C 51.710938 -15.507812 49.851562 -14.109375 47.3125 -13.078125 C 49.769531 -12.066406 51.363281 -10.847656 52.09375 -9.421875 C 52.820312 -8.003906 53.273438 -6.445312 53.453125 -4.75 C 53.617188 -3.226562 54.019531 -1.644531 54.65625 0 Z M 19.65625 -19.8125 L 28.53125 -19.84375 C 31.007812 -19.84375 32.960938 -19.953125 34.390625 -20.171875 C 35.816406 -20.390625 36.867188 -20.691406 37.546875 -21.078125 C 38.222656 -21.472656 38.65625 -21.90625 38.84375 -22.375 C 39.03125 -22.851562 39.125 -23.335938 39.125 -23.828125 C 39.125 -24.328125 39.03125 -24.816406 38.84375 -25.296875 C 38.65625 -25.785156 38.222656 -26.222656 37.546875 -26.609375 C 36.867188 -26.992188 35.816406 -27.296875 34.390625 -27.515625 C 32.960938 -27.742188 31.007812 -27.859375 28.53125 -27.859375 L 19.65625 -27.859375 Z M 19.65625 -19.8125 "/></g></g><g style="fill:#333333;fill-opacity:1;"><g transform="translate(127.537793, 183.197477)"><path style="stroke:none" d="M 26.03125 0.796875 C 17 0.796875 10.644531 -1.078125 6.96875 -4.828125 C 3.875 -7.972656 2.328125 -12.519531 2.328125 -18.46875 L 2.328125 -36.984375 L 17.84375 -36.984375 L 17.84375 -18.46875 C 17.84375 -15.882812 18.285156 -13.847656 19.171875 -12.359375 C 20.421875 -10.203125 22.707031 -9.125 26.03125 -9.125 C 29.382812 -9.125 31.679688 -10.203125 32.921875 -12.359375 C 33.796875 -13.898438 34.234375 -15.9375 34.234375 -18.46875 L 34.234375 -36.984375 L 49.765625 -36.984375 L 49.765625 -18.265625 C 49.765625 -12.453125 48.222656 -7.972656 45.140625 -4.828125 C 41.441406 -1.078125 35.070312 0.796875 26.03125 0.796875 Z M 26.03125 0.796875 "/></g></g><g style="fill:#333333;fill-opacity:1;"><g transform="translate(179.604559, 183.197477)"><path style="stroke:none" d="M 48.703125 0 L 4.125 0 L 4.125 -37.015625 L 46.65625 -37.015625 L 46.65625 -27.859375 L 19.65625 -27.859375 L 19.65625 -22.0625 L 42.484375 -22.0625 L 42.484375 -14.9375 L 19.65625 -14.9375 L 19.65625 -9.15625 L 48.703125 -9.15625 Z M 48.703125 0 "/></g></g><g style="fill:#8aa1b2;fill-opacity:1;"><g transform="translate(23.213451, 231.076473)"><path style="stroke:none" d="M 32.390625 0 L 2.75 0 L 2.75 -24.625 L 31.046875 -24.625 L 31.046875 -18.53125 L 13.078125 -18.53125 L 13.078125 -14.671875 L 28.265625 -14.671875 L 28.265625 -9.9375 L 13.078125 -9.9375 L 13.078125 -6.09375 L 32.390625 -6.09375 Z M 32.390625 0 "/></g></g><g style="fill:#8aa1b2;fill-opacity:1;"><g transform="translate(56.985151, 231.076473)"><path style="stroke:none" d="M 16.265625 0.53125 C 12.929688 0.53125 10.25 0.175781 8.21875 -0.53125 C 6.1875 -1.25 4.632812 -2.234375 3.5625 -3.484375 C 2.5 -4.742188 1.785156 -6.191406 1.421875 -7.828125 L 12.390625 -7.828125 C 13.203125 -6.660156 14.492188 -6.078125 16.265625 -6.078125 C 18.035156 -6.078125 19.328125 -6.660156 20.140625 -7.828125 C 20.210938 -7.941406 20.25 -8.046875 20.25 -8.140625 C 20.25 -8.441406 19.835938 -8.671875 19.015625 -8.828125 C 18.203125 -8.984375 16.984375 -9.101562 15.359375 -9.1875 C 13.304688 -9.269531 11.15625 -9.484375 8.90625 -9.828125 C 3.882812 -10.609375 1.375 -12.628906 1.375 -15.890625 C 1.375 -16.160156 1.390625 -16.453125 1.421875 -16.765625 C 1.785156 -18.398438 2.5 -19.84375 3.5625 -21.09375 C 4.632812 -22.34375 6.1875 -23.328125 8.21875 -24.046875 C 10.25 -24.765625 12.929688 -25.125 16.265625 -25.125 C 19.597656 -25.125 22.28125 -24.765625 24.3125 -24.046875 C 26.351562 -23.328125 27.90625 -22.34375 28.96875 -21.09375 C 30.03125 -19.84375 30.742188 -18.398438 31.109375 -16.765625 L 20.140625 -16.765625 C 19.328125 -17.929688 18.035156 -18.515625 16.265625 -18.515625 C 14.492188 -18.515625 13.203125 -17.929688 12.390625 -16.765625 C 12.328125 -16.671875 12.296875 -16.582031 12.296875 -16.5 C 12.296875 -16.226562 12.6875 -16.023438 13.46875 -15.890625 C 14.257812 -15.765625 15.414062 -15.65625 16.9375 -15.5625 C 18.46875 -15.46875 20.097656 -15.316406 21.828125 -15.109375 C 23.554688 -14.910156 25.171875 -14.554688 26.671875 -14.046875 C 28.171875 -13.535156 29.347656 -12.78125 30.203125 -11.78125 C 30.859375 -11.019531 31.1875 -10.050781 31.1875 -8.875 C 31.1875 -8.539062 31.160156 -8.191406 31.109375 -7.828125 C 30.742188 -6.191406 30.03125 -4.742188 28.96875 -3.484375 C 27.90625 -2.234375 26.351562 -1.25 24.3125 -0.53125 C 22.28125 0.175781 19.597656 0.53125 16.265625 0.53125 Z M 16.265625 0.53125 "/></g></g><g style="fill:#8aa1b2;fill-opacity:1;"><g transform="translate(89.555622, 231.076473)"><path style="stroke:none" d="M 16.265625 0.53125 C 12.929688 0.53125 10.25 0.175781 8.21875 -0.53125 C 6.1875 -1.25 4.632812 -2.234375 3.5625 -3.484375 C 2.5 -4.742188 1.785156 -6.191406 1.421875 -7.828125 L 12.390625 -7.828125 C 13.203125 -6.660156 14.492188 -6.078125 16.265625 -6.078125 C 18.035156 -6.078125 19.328125 -6.660156 20.140625 -7.828125 C 20.210938 -7.941406 20.25 -8.046875 20.25 -8.140625 C 20.25 -8.441406 19.835938 -8.671875 19.015625 -8.828125 C 18.203125 -8.984375 16.984375 -9.101562 15.359375 -9.1875 C 13.304688 -9.269531 11.15625 -9.484375 8.90625 -9.828125 C 3.882812 -10.609375 1.375 -12.628906 1.375 -15.890625 C 1.375 -16.160156 1.390625 -16.453125 1.421875 -16.765625 C 1.785156 -18.398438 2.5 -19.84375 3.5625 -21.09375 C 4.632812 -22.34375 6.1875 -23.328125 8.21875 -24.046875 C 10.25 -24.765625 12.929688 -25.125 16.265625 -25.125 C 19.597656 -25.125 22.28125 -24.765625 24.3125 -24.046875 C 26.351562 -23.328125 27.90625 -22.34375 28.96875 -21.09375 C 30.03125 -19.84375 30.742188 -18.398438 31.109375 -16.765625 L 20.140625 -16.765625 C 19.328125 -17.929688 18.035156 -18.515625 16.265625 -18.515625 C 14.492188 -18.515625 13.203125 -17.929688 12.390625 -16.765625 C 12.328125 -16.671875 12.296875 -16.582031 12.296875 -16.5 C 12.296875 -16.226562 12.6875 -16.023438 13.46875 -15.890625 C 14.257812 -15.765625 15.414062 -15.65625 16.9375 -15.5625 C 18.46875 -15.46875 20.097656 -15.316406 21.828125 -15.109375 C 23.554688 -14.910156 25.171875 -14.554688 26.671875 -14.046875 C 28.171875 -13.535156 29.347656 -12.78125 30.203125 -11.78125 C 30.859375 -11.019531 31.1875 -10.050781 31.1875 -8.875 C 31.1875 -8.539062 31.160156 -8.191406 31.109375 -7.828125 C 30.742188 -6.191406 30.03125 -4.742188 28.96875 -3.484375 C 27.90625 -2.234375 26.351562 -1.25 24.3125 -0.53125 C 22.28125 0.175781 19.597656 0.53125 16.265625 0.53125 Z M 16.265625 0.53125 "/></g></g><g style="fill:#8aa1b2;fill-opacity:1;"><g transform="translate(122.126092, 231.076473)"><path style="stroke:none" d="M 32.390625 0 L 2.75 0 L 2.75 -24.625 L 31.046875 -24.625 L 31.046875 -18.53125 L 13.078125 -18.53125 L 13.078125 -14.671875 L 28.265625 -14.671875 L 28.265625 -9.9375 L 13.078125 -9.9375 L 13.078125 -6.09375 L 32.390625 -6.09375 Z M 32.390625 0 "/></g></g><g style="fill:#8aa1b2;fill-opacity:1;"><g transform="translate(155.897792, 231.076473)"><path style="stroke:none" d="M 39.28125 0 L 26.984375 0 L 13.078125 -16.65625 L 13.078125 0 L 2.75 0 L 2.75 -24.625 L 15.03125 -24.625 L 28.953125 -8.046875 L 28.953125 -24.625 L 39.28125 -24.625 Z M 39.28125 0 "/></g></g><g style="fill:#8aa1b2;fill-opacity:1;"><g transform="translate(197.923648, 231.076473)"><path style="stroke:none" d="M 21 0 L 10.671875 0 L 10.671875 -18.53125 L 1.03125 -18.53125 L 1.03125 -24.625 L 30.640625 -24.625 L 30.640625 -18.53125 L 21 -18.53125 Z M 21 0 "/></g></g><g style="fill:#8aa1b2;fill-opacity:1;"><g transform="translate(229.601786, 231.076473)"><path style="stroke:none" d="M 13.078125 0 L 2.75 0 L 2.75 -24.625 L 13.078125 -24.625 Z M 13.078125 0 "/></g></g><g style="fill:#8aa1b2;fill-opacity:1;"><g transform="translate(245.423681, 231.076473)"><path style="stroke:none" d="M 41.359375 0 L 30.890625 0 L 28.5625 -4.03125 L 13.046875 -4.03125 L 10.71875 0 L 0.25 0 L 16.015625 -24.609375 L 25.59375 -24.609375 Z M 25.078125 -10.125 L 20.8125 -17.59375 L 16.53125 -10.125 Z M 25.078125 -10.125 "/></g></g><g style="fill:#8aa1b2;fill-opacity:1;"><g transform="translate(287.037706, 231.076473)"><path style="stroke:none" d="M 31.484375 0 L 2.75 0 L 2.75 -24.625 L 13.078125 -24.625 L 13.078125 -6.09375 L 31.484375 -6.09375 Z M 31.484375 0 "/></g></g><g style="fill:#8aa1b2;fill-opacity:1;"><g transform="translate(319.213492, 231.076473)"><path style="stroke:none" d="M 16.265625 0.53125 C 12.929688 0.53125 10.25 0.175781 8.21875 -0.53125 C 6.1875 -1.25 4.632812 -2.234375 3.5625 -3.484375 C 2.5 -4.742188 1.785156 -6.191406 1.421875 -7.828125 L 12.390625 -7.828125 C 13.203125 -6.660156 14.492188 -6.078125 16.265625 -6.078125 C 18.035156 -6.078125 19.328125 -6.660156 20.140625 -7.828125 C 20.210938 -7.941406 20.25 -8.046875 20.25 -8.140625 C 20.25 -8.441406 19.835938 -8.671875 19.015625 -8.828125 C 18.203125 -8.984375 16.984375 -9.101562 15.359375 -9.1875 C 13.304688 -9.269531 11.15625 -9.484375 8.90625 -9.828125 C 3.882812 -10.609375 1.375 -12.628906 1.375 -15.890625 C 1.375 -16.160156 1.390625 -16.453125 1.421875 -16.765625 C 1.785156 -18.398438 2.5 -19.84375 3.5625 -21.09375 C 4.632812 -22.34375 6.1875 -23.328125 8.21875 -24.046875 C 10.25 -24.765625 12.929688 -25.125 16.265625 -25.125 C 19.597656 -25.125 22.28125 -24.765625 24.3125 -24.046875 C 26.351562 -23.328125 27.90625 -22.34375 28.96875 -21.09375 C 30.03125 -19.84375 30.742188 -18.398438 31.109375 -16.765625 L 20.140625 -16.765625 C 19.328125 -17.929688 18.035156 -18.515625 16.265625 -18.515625 C 14.492188 -18.515625 13.203125 -17.929688 12.390625 -16.765625 C 12.328125 -16.671875 12.296875 -16.582031 12.296875 -16.5 C 12.296875 -16.226562 12.6875 -16.023438 13.46875 -15.890625 C 14.257812 -15.765625 15.414062 -15.65625 16.9375 -15.5625 C 18.46875 -15.46875 20.097656 -15.316406 21.828125 -15.109375 C 23.554688 -14.910156 25.171875 -14.554688 26.671875 -14.046875 C 28.171875 -13.535156 29.347656 -12.78125 30.203125 -11.78125 C 30.859375 -11.019531 31.1875 -10.050781 31.1875 -8.875 C 31.1875 -8.539062 31.160156 -8.191406 31.109375 -7.828125 C 30.742188 -6.191406 30.03125 -4.742188 28.96875 -3.484375 C 27.90625 -2.234375 26.351562 -1.25 24.3125 -0.53125 C 22.28125 0.175781 19.597656 0.53125 16.265625 0.53125 Z M 16.265625 0.53125 "/></g></g><path style=" stroke:none;fill-rule:nonzero;fill:#8aa1b2;fill-opacity:1;" d="M 230.378906 165.882812 L 233.378906 165.882812 L 233.378906 168.882812 L 230.378906 168.882812 M 236.378906 165.882812 L 239.378906 165.882812 L 239.378906 168.882812 L 236.378906 168.882812 M 242.378906 165.882812 L 245.378906 165.882812 L 245.378906 168.882812 L 242.378906 168.882812 M 248.378906 165.882812 L 251.378906 165.882812 L 251.378906 168.882812 L 248.378906 168.882812 M 254.378906 165.882812 L 257.378906 165.882812 L 257.378906 168.882812 L 254.378906 168.882812 M 260.378906 165.882812 L 263.378906 165.882812 L 263.378906 168.882812 L 260.378906 168.882812 M 266.378906 165.882812 L 269.378906 165.882812 L 269.378906 168.882812 L 266.378906 168.882812 M 272.378906 165.882812 L 275.378906 165.882812 L 275.378906 168.882812 L 272.378906 168.882812 M 278.378906 165.882812 L 281.378906 165.882812 L 281.378906 168.882812 L 278.378906 168.882812 M 284.378906 165.882812 L 287.378906 165.882812 L 287.378906 168.882812 L 284.378906 168.882812 M 290.378906 165.882812 L 293.378906 165.882812 L 293.378906 168.882812 L 290.378906 168.882812 M 296.378906 165.882812 L 299.378906 165.882812 L 299.378906 168.882812 L 296.378906 168.882812 M 302.378906 165.882812 L 305.378906 165.882812 L 305.378906 168.882812 L 302.378906 168.882812 M 308.378906 165.882812 L 311.378906 165.882812 L 311.378906 168.882812 L 308.378906 168.882812 M 314.378906 165.882812 L 317.378906 165.882812 L 317.378906 168.882812 L 314.378906 168.882812 M 320.378906 165.882812 L 323.378906 165.882812 L 323.378906 168.882812 L 320.378906 168.882812 M 326.378906 165.882812 L 329.378906 165.882812 L 329.378906 168.882812 L 326.378906 168.882812 M 332.378906 165.882812 L 335.378906 165.882812 L 335.378906 168.882812 L 332.378906 168.882812 M 338.378906 165.882812 L 341.378906 165.882812 L 341.378906 168.882812 L 338.378906 168.882812 M 344.378906 165.882812 L 347.378906 165.882812 L 347.378906 168.882812 L 344.378906 168.882812 M 350.378906 165.882812 L 351.785156 165.882812 L 351.785156 168.882812 L 350.378906 168.882812 "/><path style="fill:none;stroke-width:4;stroke-linecap:butt;stroke-linejoin:miter;stroke:#333333;stroke-opacity:1;stroke-miterlimit:4;" d="M 12.999431 2.000461 L 425.09807 2.000461 " transform="matrix(0.749839,0.000000000000000097,-0.000000000000000097,0.749839,23.213451,239.242163)"/><path style="fill:none;stroke-width:4;stroke-linecap:round;stroke-linejoin:round;stroke:#333333;stroke-opacity:1;stroke-miterlimit:4;" d="M 2.002285 2.000461 L 7.99836 -4.000823 L 13.999645 2.000461 L 7.99836 8.001746 Z M 2.002285 2.000461 " transform="matrix(0.749839,0.000000000000000097,-0.000000000000000097,0.749839,23.213451,239.242163)"/><path style="fill:none;stroke-width:4;stroke-linecap:round;stroke-linejoin:round;stroke:#333333;stroke-opacity:1;stroke-miterlimit:4;" d="M 436.095216 2.000461 L 430.099141 -4.000823 L 424.097856 2.000461 L 430.099141 8.001746 Z M 436.095216 2.000461 " transform="matrix(0.749839,0.000000000000000097,-0.000000000000000097,0.749839,23.213451,239.242163)"/><path style="fill:none;stroke-width:4;stroke-linecap:butt;stroke-linejoin:miter;stroke:#333333;stroke-opacity:1;stroke-miterlimit:4;" d="M 12.999431 2.000428 L 425.09807 2.000428 " transform="matrix(0.749839,0,0,0.749839,23.213451,132.757813)"/><path style="fill:none;stroke-width:4;stroke-linecap:round;stroke-linejoin:round;stroke:#333333;stroke-opacity:1;stroke-miterlimit:4;" d="M 2.002285 2.000428 L 7.99836 -4.000857 L 13.999645 2.000428 L 7.99836 8.001713 Z M 2.002285 2.000428 " transform="matrix(0.749839,0,0,0.749839,23.213451,132.757813)"/><path style="fill:none;stroke-width:4;stroke-linecap:round;stroke-linejoin:round;stroke:#333333;stroke-opacity:1;stroke-miterlimit:4;" d="M 436.095216 2.000428 L 430.099141 -4.000857 L 424.097856 2.000428 L 430.099141 8.001713 Z M 436.095216 2.000428 " transform="matrix(0.749839,0,0,0.749839,23.213451,132.757813)"/></g></svg>