<svg xmlns="http://www.w3.org/2000/svg" xmlns:xlink="http://www.w3.org/1999/xlink" width="1920" zoomAndPan="magnify" viewBox="0 0 1440 809.999993" height="1080" preserveAspectRatio="xMidYMid meet" version="1.2"><defs/><g id="36d524ff37"><rect x="0" width="1440" y="0" height="809.999993" style="fill:#ffffff;fill-opacity:1;stroke:none;"/><rect x="0" width="1440" y="0" height="809.999993" style="fill:#ffffff;fill-opacity:1;stroke:none;"/><g style="fill:#333333;fill-opacity:1;"><g transform="translate(15.148082, 386.539388)"><path style="stroke:none" d="M 135.453125 0 L 68.828125 0 L 68.828125 -119.515625 L 6.640625 -119.515625 L 6.640625 -158.796875 L 197.640625 -158.796875 L 197.640625 -119.515625 L 135.453125 -119.515625 Z M 135.453125 0 "/></g></g><g style="fill:#333333;fill-opacity:1;"><g transform="translate(219.40608, 386.539388)"><path style="stroke:none" d="M 234.5 0 L 171.53125 0 C 168.65625 -3.976562 166.625 -9.066406 165.4375 -15.265625 C 164.40625 -20.066406 162.859375 -24.769531 160.796875 -29.375 C 158.734375 -33.988281 155.171875 -37.828125 150.109375 -40.890625 C 145.054688 -43.953125 137.550781 -45.59375 127.59375 -45.8125 L 84.328125 -45.8125 L 84.328125 0 L 17.703125 0 L 17.703125 -158.796875 L 126.046875 -158.796875 C 151.941406 -158.796875 172.835938 -156.859375 188.734375 -152.984375 C 204.640625 -149.117188 216.242188 -143.035156 223.546875 -134.734375 C 230.847656 -126.429688 234.5 -115.601562 234.5 -102.25 C 234.5 -91.113281 231.972656 -81.742188 226.921875 -74.140625 C 221.867188 -66.546875 213.878906 -60.535156 202.953125 -56.109375 C 213.503906 -51.753906 220.347656 -46.53125 223.484375 -40.4375 C 226.617188 -34.351562 228.554688 -27.660156 229.296875 -20.359375 C 230.035156 -13.867188 231.769531 -7.082031 234.5 0 Z M 84.328125 -84.984375 L 122.390625 -85.09375 C 133.015625 -85.09375 141.390625 -85.570312 147.515625 -86.53125 C 153.640625 -87.5 158.15625 -88.8125 161.0625 -90.46875 C 163.976562 -92.125 165.84375 -93.96875 166.65625 -96 C 167.46875 -98.03125 167.875 -100.113281 167.875 -102.25 C 167.875 -104.394531 167.46875 -106.5 166.65625 -108.5625 C 165.84375 -110.625 163.976562 -112.484375 161.0625 -114.140625 C 158.15625 -115.804688 153.640625 -117.117188 147.515625 -118.078125 C 141.390625 -119.035156 133.015625 -119.515625 122.390625 -119.515625 L 84.328125 -119.515625 Z M 84.328125 -84.984375 "/></g></g><g style="fill:#333333;fill-opacity:1;"><g transform="translate(462.723183, 386.539388)"><path style="stroke:none" d="M 111.65625 3.4375 C 72.925781 3.4375 45.664062 -4.601562 29.875 -20.6875 C 16.59375 -34.195312 9.953125 -53.710938 9.953125 -79.234375 L 9.953125 -158.6875 L 76.578125 -158.6875 L 76.578125 -79.234375 C 76.578125 -68.171875 78.457031 -59.429688 82.21875 -53.015625 C 87.601562 -43.785156 97.414062 -39.171875 111.65625 -39.171875 C 126.039062 -39.171875 135.890625 -43.785156 141.203125 -53.015625 C 144.972656 -59.648438 146.859375 -68.390625 146.859375 -79.234375 L 146.859375 -158.6875 L 213.46875 -158.6875 L 213.46875 -78.34375 C 213.46875 -53.414062 206.863281 -34.195312 193.65625 -20.6875 C 177.800781 -4.601562 150.46875 3.4375 111.65625 3.4375 Z M 111.65625 3.4375 "/></g></g><g style="fill:#333333;fill-opacity:1;"><g transform="translate(686.123473, 386.539388)"><path style="stroke:none" d="M 208.9375 0 L 17.703125 0 L 17.703125 -158.796875 L 200.1875 -158.796875 L 200.1875 -119.515625 L 84.328125 -119.515625 L 84.328125 -94.625 L 182.265625 -94.625 L 182.265625 -64.078125 L 84.328125 -64.078125 L 84.328125 -39.28125 L 208.9375 -39.28125 Z M 208.9375 0 "/></g></g><g style="fill:#8aa1b2;fill-opacity:1;"><g transform="translate(15.103901, 591.971447)"><path style="stroke:none" d="M 139.015625 0 L 11.78125 0 L 11.78125 -105.65625 L 133.203125 -105.65625 L 133.203125 -79.515625 L 56.109375 -79.515625 L 56.109375 -62.953125 L 121.265625 -62.953125 L 121.265625 -42.625 L 56.109375 -42.625 L 56.109375 -26.140625 L 139.015625 -26.140625 Z M 139.015625 0 "/></g></g><g style="fill:#8aa1b2;fill-opacity:1;"><g transform="translate(160.006459, 591.971447)"><path style="stroke:none" d="M 69.796875 2.28125 C 55.515625 2.28125 44.003906 0.75 35.265625 -2.3125 C 26.523438 -5.382812 19.875 -9.609375 15.3125 -14.984375 C 10.75 -20.359375 7.679688 -26.554688 6.109375 -33.578125 L 53.15625 -33.578125 C 56.644531 -28.566406 62.191406 -26.0625 69.796875 -26.0625 C 77.410156 -26.0625 82.957031 -28.566406 86.4375 -33.578125 C 86.738281 -34.066406 86.890625 -34.507812 86.890625 -34.90625 C 86.890625 -36.226562 85.132812 -37.21875 81.625 -37.875 C 78.113281 -38.539062 72.875 -39.046875 65.90625 -39.390625 C 57.113281 -39.785156 47.882812 -40.71875 38.21875 -42.1875 C 16.664062 -45.53125 5.890625 -54.195312 5.890625 -68.1875 C 5.890625 -69.363281 5.960938 -70.613281 6.109375 -71.9375 C 7.679688 -78.957031 10.75 -85.15625 15.3125 -90.53125 C 19.875 -95.90625 26.523438 -100.125 35.265625 -103.1875 C 44.003906 -106.257812 55.515625 -107.796875 69.796875 -107.796875 C 84.085938 -107.796875 95.597656 -106.257812 104.328125 -103.1875 C 113.066406 -100.125 119.71875 -95.90625 124.28125 -90.53125 C 128.851562 -85.15625 131.925781 -78.957031 133.5 -71.9375 L 86.4375 -71.9375 C 82.957031 -76.945312 77.410156 -79.453125 69.796875 -79.453125 C 62.191406 -79.453125 56.644531 -76.945312 53.15625 -71.9375 C 52.914062 -71.539062 52.796875 -71.171875 52.796875 -70.828125 C 52.796875 -69.648438 54.472656 -68.78125 57.828125 -68.21875 C 61.191406 -67.65625 66.148438 -67.175781 72.703125 -66.78125 C 79.265625 -66.382812 86.25 -65.742188 93.65625 -64.859375 C 101.070312 -63.984375 108.003906 -62.453125 114.453125 -60.265625 C 120.910156 -58.078125 125.957031 -54.847656 129.59375 -50.578125 C 132.4375 -47.296875 133.859375 -43.125 133.859375 -38.0625 C 133.859375 -36.644531 133.738281 -35.148438 133.5 -33.578125 C 131.925781 -26.554688 128.851562 -20.359375 124.28125 -14.984375 C 119.71875 -9.609375 113.066406 -5.382812 104.328125 -2.3125 C 95.597656 0.75 84.085938 2.28125 69.796875 2.28125 Z M 69.796875 2.28125 "/></g></g><g style="fill:#8aa1b2;fill-opacity:1;"><g transform="translate(299.754962, 591.971447)"><path style="stroke:none" d="M 69.796875 2.28125 C 55.515625 2.28125 44.003906 0.75 35.265625 -2.3125 C 26.523438 -5.382812 19.875 -9.609375 15.3125 -14.984375 C 10.75 -20.359375 7.679688 -26.554688 6.109375 -33.578125 L 53.15625 -33.578125 C 56.644531 -28.566406 62.191406 -26.0625 69.796875 -26.0625 C 77.410156 -26.0625 82.957031 -28.566406 86.4375 -33.578125 C 86.738281 -34.066406 86.890625 -34.507812 86.890625 -34.90625 C 86.890625 -36.226562 85.132812 -37.21875 81.625 -37.875 C 78.113281 -38.539062 72.875 -39.046875 65.90625 -39.390625 C 57.113281 -39.785156 47.882812 -40.71875 38.21875 -42.1875 C 16.664062 -45.53125 5.890625 -54.195312 5.890625 -68.1875 C 5.890625 -69.363281 5.960938 -70.613281 6.109375 -71.9375 C 7.679688 -78.957031 10.75 -85.15625 15.3125 -90.53125 C 19.875 -95.90625 26.523438 -100.125 35.265625 -103.1875 C 44.003906 -106.257812 55.515625 -107.796875 69.796875 -107.796875 C 84.085938 -107.796875 95.597656 -106.257812 104.328125 -103.1875 C 113.066406 -100.125 119.71875 -95.90625 124.28125 -90.53125 C 128.851562 -85.15625 131.925781 -78.957031 133.5 -71.9375 L 86.4375 -71.9375 C 82.957031 -76.945312 77.410156 -79.453125 69.796875 -79.453125 C 62.191406 -79.453125 56.644531 -76.945312 53.15625 -71.9375 C 52.914062 -71.539062 52.796875 -71.171875 52.796875 -70.828125 C 52.796875 -69.648438 54.472656 -68.78125 57.828125 -68.21875 C 61.191406 -67.65625 66.148438 -67.175781 72.703125 -66.78125 C 79.265625 -66.382812 86.25 -65.742188 93.65625 -64.859375 C 101.070312 -63.984375 108.003906 -62.453125 114.453125 -60.265625 C 120.910156 -58.078125 125.957031 -54.847656 129.59375 -50.578125 C 132.4375 -47.296875 133.859375 -43.125 133.859375 -38.0625 C 133.859375 -36.644531 133.738281 -35.148438 133.5 -33.578125 C 131.925781 -26.554688 128.851562 -20.359375 124.28125 -14.984375 C 119.71875 -9.609375 113.066406 -5.382812 104.328125 -2.3125 C 95.597656 0.75 84.085938 2.28125 69.796875 2.28125 Z M 69.796875 2.28125 "/></g></g><g style="fill:#8aa1b2;fill-opacity:1;"><g transform="translate(439.503465, 591.971447)"><path style="stroke:none" d="M 139.015625 0 L 11.78125 0 L 11.78125 -105.65625 L 133.203125 -105.65625 L 133.203125 -79.515625 L 56.109375 -79.515625 L 56.109375 -62.953125 L 121.265625 -62.953125 L 121.265625 -42.625 L 56.109375 -42.625 L 56.109375 -26.140625 L 139.015625 -26.140625 Z M 139.015625 0 "/></g></g><g style="fill:#8aa1b2;fill-opacity:1;"><g transform="translate(584.406023, 591.971447)"><path style="stroke:none" d="M 168.546875 0 L 115.828125 0 L 56.109375 -71.5 L 56.109375 0 L 11.78125 0 L 11.78125 -105.65625 L 64.5 -105.65625 L 124.21875 -34.53125 L 124.21875 -105.65625 L 168.546875 -105.65625 Z M 168.546875 0 "/></g></g><g style="fill:#8aa1b2;fill-opacity:1;"><g transform="translate(764.724278, 591.971447)"><path style="stroke:none" d="M 90.125 0 L 45.796875 0 L 45.796875 -79.515625 L 4.421875 -79.515625 L 4.421875 -105.65625 L 131.5 -105.65625 L 131.5 -79.515625 L 90.125 -79.515625 Z M 90.125 0 "/></g></g><g style="fill:#8aa1b2;fill-opacity:1;"><g transform="translate(900.644098, 591.971447)"><path style="stroke:none" d="M 56.109375 0 L 11.78125 0 L 11.78125 -105.65625 L 56.109375 -105.65625 Z M 56.109375 0 "/></g></g><g style="fill:#8aa1b2;fill-opacity:1;"><g transform="translate(968.530316, 591.971447)"><path style="stroke:none" d="M 177.453125 0 L 132.53125 0 L 122.59375 -17.296875 L 55.953125 -17.296875 L 46.015625 0 L 1.109375 0 L 68.703125 -105.59375 L 109.859375 -105.59375 Z M 107.65625 -43.4375 L 89.3125 -75.46875 L 70.90625 -43.4375 Z M 107.65625 -43.4375 "/></g></g><g style="fill:#8aa1b2;fill-opacity:1;"><g transform="translate(1147.081551, 591.971447)"><path style="stroke:none" d="M 135.109375 0 L 11.78125 0 L 11.78125 -105.65625 L 56.109375 -105.65625 L 56.109375 -26.140625 L 135.109375 -26.140625 Z M 135.109375 0 "/></g></g><g style="fill:#8aa1b2;fill-opacity:1;"><g transform="translate(1285.136601, 591.971447)"><path style="stroke:none" d="M 69.796875 2.28125 C 55.515625 2.28125 44.003906 0.75 35.265625 -2.3125 C 26.523438 -5.382812 19.875 -9.609375 15.3125 -14.984375 C 10.75 -20.359375 7.679688 -26.554688 6.109375 -33.578125 L 53.15625 -33.578125 C 56.644531 -28.566406 62.191406 -26.0625 69.796875 -26.0625 C 77.410156 -26.0625 82.957031 -28.566406 86.4375 -33.578125 C 86.738281 -34.066406 86.890625 -34.507812 86.890625 -34.90625 C 86.890625 -36.226562 85.132812 -37.21875 81.625 -37.875 C 78.113281 -38.539062 72.875 -39.046875 65.90625 -39.390625 C 57.113281 -39.785156 47.882812 -40.71875 38.21875 -42.1875 C 16.664062 -45.53125 5.890625 -54.195312 5.890625 -68.1875 C 5.890625 -69.363281 5.960938 -70.613281 6.109375 -71.9375 C 7.679688 -78.957031 10.75 -85.15625 15.3125 -90.53125 C 19.875 -95.90625 26.523438 -100.125 35.265625 -103.1875 C 44.003906 -106.257812 55.515625 -107.796875 69.796875 -107.796875 C 84.085938 -107.796875 95.597656 -106.257812 104.328125 -103.1875 C 113.066406 -100.125 119.71875 -95.90625 124.28125 -90.53125 C 128.851562 -85.15625 131.925781 -78.957031 133.5 -71.9375 L 86.4375 -71.9375 C 82.957031 -76.945312 77.410156 -79.453125 69.796875 -79.453125 C 62.191406 -79.453125 56.644531 -76.945312 53.15625 -71.9375 C 52.914062 -71.539062 52.796875 -71.171875 52.796875 -70.828125 C 52.796875 -69.648438 54.472656 -68.78125 57.828125 -68.21875 C 61.191406 -67.65625 66.148438 -67.175781 72.703125 -66.78125 C 79.265625 -66.382812 86.25 -65.742188 93.65625 -64.859375 C 101.070312 -63.984375 108.003906 -62.453125 114.453125 -60.265625 C 120.910156 -58.078125 125.957031 -54.847656 129.59375 -50.578125 C 132.4375 -47.296875 133.859375 -43.125 133.859375 -38.0625 C 133.859375 -36.644531 133.738281 -35.148438 133.5 -33.578125 C 131.925781 -26.554688 128.851562 -20.359375 124.28125 -14.984375 C 119.71875 -9.609375 113.066406 -5.382812 104.328125 -2.3125 C 95.597656 0.75 84.085938 2.28125 69.796875 2.28125 Z M 69.796875 2.28125 "/></g></g><path style=" stroke:none;fill-rule:nonzero;fill:#8aa1b2;fill-opacity:1;" d="M 903.972656 312.300781 L 916.722656 312.300781 L 916.722656 325.050781 L 903.972656 325.050781 M 929.472656 312.300781 L 942.222656 312.300781 L 942.222656 325.050781 L 929.472656 325.050781 M 954.972656 312.300781 L 967.722656 312.300781 L 967.722656 325.050781 L 954.972656 325.050781 M 980.472656 312.300781 L 993.222656 312.300781 L 993.222656 325.050781 L 980.472656 325.050781 M 1005.972656 312.300781 L 1018.722656 312.300781 L 1018.722656 325.050781 L 1005.972656 325.050781 M 1031.472656 312.300781 L 1044.222656 312.300781 L 1044.222656 325.050781 L 1031.472656 325.050781 M 1056.972656 312.300781 L 1069.722656 312.300781 L 1069.722656 325.050781 L 1056.972656 325.050781 M 1082.472656 312.300781 L 1095.222656 312.300781 L 1095.222656 325.050781 L 1082.472656 325.050781 M 1107.972656 312.300781 L 1120.722656 312.300781 L 1120.722656 325.050781 L 1107.972656 325.050781 M 1133.472656 312.300781 L 1146.222656 312.300781 L 1146.222656 325.050781 L 1133.472656 325.050781 M 1158.972656 312.300781 L 1171.722656 312.300781 L 1171.722656 325.050781 L 1158.972656 325.050781 M 1184.472656 312.300781 L 1197.222656 312.300781 L 1197.222656 325.050781 L 1184.472656 325.050781 M 1209.972656 312.300781 L 1222.722656 312.300781 L 1222.722656 325.050781 L 1209.972656 325.050781 M 1235.472656 312.300781 L 1248.222656 312.300781 L 1248.222656 325.050781 L 1235.472656 325.050781 M 1260.972656 312.300781 L 1273.722656 312.300781 L 1273.722656 325.050781 L 1260.972656 325.050781 M 1286.472656 312.300781 L 1299.222656 312.300781 L 1299.222656 325.050781 L 1286.472656 325.050781 M 1311.972656 312.300781 L 1324.722656 312.300781 L 1324.722656 325.050781 L 1311.972656 325.050781 M 1337.472656 312.300781 L 1350.222656 312.300781 L 1350.222656 325.050781 L 1337.472656 325.050781 M 1362.972656 312.300781 L 1375.722656 312.300781 L 1375.722656 325.050781 L 1362.972656 325.050781 M 1388.472656 312.300781 L 1401.222656 312.300781 L 1401.222656 325.050781 L 1388.472656 325.050781 M 1413.972656 312.300781 L 1424.894531 312.300781 L 1424.894531 325.050781 L 1413.972656 325.050781 "/><path style="fill:none;stroke-width:17;stroke-linecap:butt;stroke-linejoin:miter;stroke:#333333;stroke-opacity:1;stroke-miterlimit:4;" d="M 55.252094 8.502374 L 1824.470933 8.502374 " transform="matrix(0.75,0,0,0.75,15.103901,627.068532)"/><path style="fill:none;stroke-width:17;stroke-linecap:round;stroke-linejoin:round;stroke:#333333;stroke-opacity:1;stroke-miterlimit:4;" d="M 8.502091 8.502374 L 34.002093 -16.997627 L 59.502094 8.502374 L 34.002093 34.002375 Z M 8.502091 8.502374 " transform="matrix(0.75,0,0,0.75,15.103901,627.068532)"/><path style="fill:none;stroke-width:17;stroke-linecap:round;stroke-linejoin:round;stroke:#333333;stroke-opacity:1;stroke-miterlimit:4;" d="M 1871.220935 8.502374 L 1845.720934 -16.997627 L 1820.220933 8.502374 L 1845.720934 34.002375 Z M 1871.220935 8.502374 " transform="matrix(0.75,0,0,0.75,15.103901,627.068532)"/><path style="fill:none;stroke-width:17;stroke-linecap:butt;stroke-linejoin:miter;stroke:#333333;stroke-opacity:1;stroke-miterlimit:4;" d="M 55.252094 8.49764 L 1824.470933 8.49764 " transform="matrix(0.75,0,0,0.75,15.103901,170.181458)"/><path style="fill:none;stroke-width:17;stroke-linecap:round;stroke-linejoin:round;stroke:#333333;stroke-opacity:1;stroke-miterlimit:4;" d="M 8.502091 8.49764 L 34.002093 -17.002361 L 59.502094 8.49764 L 34.002093 33.997641 Z M 8.502091 8.49764 " transform="matrix(0.75,0,0,0.75,15.103901,170.181458)"/><path style="fill:none;stroke-width:17;stroke-linecap:round;stroke-linejoin:round;stroke:#333333;stroke-opacity:1;stroke-miterlimit:4;" d="M 1871.220935 8.49764 L 1845.720934 -17.002361 L 1820.220933 8.49764 L 1845.720934 33.997641 Z M 1871.220935 8.49764 " transform="matrix(0.75,0,0,0.75,15.103901,170.181458)"/></g></svg>