<svg xmlns="http://www.w3.org/2000/svg" xmlns:xlink="http://www.w3.org/1999/xlink" width="400" zoomAndPan="magnify" viewBox="0 0 300 89.999999" height="120" preserveAspectRatio="xMidYMid meet" version="1.2"><defs/><g id="3c93b27ebb"><rect x="0" width="300" y="0" height="89.999999" style="fill:#ffffff;fill-opacity:1;stroke:none;"/><rect x="0" width="300" y="0" height="89.999999" style="fill:#ffffff;fill-opacity:1;stroke:none;"/><g style="fill:#333333;fill-opacity:1;"><g transform="translate(33.795575, 41.956516)"><path style="stroke:none" d="M 22.328125 0 L 11.34375 0 L 11.34375 -19.703125 L 1.09375 -19.703125 L 1.09375 -26.171875 L 32.578125 -26.171875 L 32.578125 -19.703125 L 22.328125 -19.703125 Z M 22.328125 0 "/></g></g><g style="fill:#333333;fill-opacity:1;"><g transform="translate(67.470282, 41.956516)"><path style="stroke:none" d="M 38.65625 0 L 28.28125 0 C 27.800781 -0.65625 27.460938 -1.492188 27.265625 -2.515625 C 27.097656 -3.304688 26.84375 -4.082031 26.5 -4.84375 C 26.164062 -5.601562 25.582031 -6.234375 24.75 -6.734375 C 23.914062 -7.242188 22.675781 -7.515625 21.03125 -7.546875 L 13.90625 -7.546875 L 13.90625 0 L 2.921875 0 L 2.921875 -26.171875 L 20.78125 -26.171875 C 25.050781 -26.171875 28.492188 -25.851562 31.109375 -25.21875 C 33.734375 -24.582031 35.644531 -23.578125 36.84375 -22.203125 C 38.050781 -20.835938 38.65625 -19.054688 38.65625 -16.859375 C 38.65625 -15.015625 38.238281 -13.46875 37.40625 -12.21875 C 36.570312 -10.96875 35.253906 -9.976562 33.453125 -9.25 C 35.191406 -8.53125 36.316406 -7.664062 36.828125 -6.65625 C 37.347656 -5.65625 37.671875 -4.554688 37.796875 -3.359375 C 37.921875 -2.285156 38.207031 -1.164062 38.65625 0 Z M 13.90625 -14.015625 L 20.171875 -14.03125 C 21.921875 -14.03125 23.300781 -14.109375 24.3125 -14.265625 C 25.320312 -14.421875 26.066406 -14.632812 26.546875 -14.90625 C 27.023438 -15.1875 27.332031 -15.492188 27.46875 -15.828125 C 27.601562 -16.160156 27.671875 -16.503906 27.671875 -16.859375 C 27.671875 -17.210938 27.601562 -17.554688 27.46875 -17.890625 C 27.332031 -18.234375 27.023438 -18.539062 26.546875 -18.8125 C 26.066406 -19.09375 25.320312 -19.3125 24.3125 -19.46875 C 23.300781 -19.625 21.921875 -19.703125 20.171875 -19.703125 L 13.90625 -19.703125 Z M 13.90625 -14.015625 "/></g></g><g style="fill:#333333;fill-opacity:1;"><g transform="translate(107.584413, 41.956516)"><path style="stroke:none" d="M 18.40625 0.5625 C 12.019531 0.5625 7.523438 -0.757812 4.921875 -3.40625 C 2.734375 -5.632812 1.640625 -8.851562 1.640625 -13.0625 L 1.640625 -26.15625 L 12.625 -26.15625 L 12.625 -13.0625 C 12.625 -11.238281 12.929688 -9.796875 13.546875 -8.734375 C 14.441406 -7.210938 16.0625 -6.453125 18.40625 -6.453125 C 20.78125 -6.453125 22.40625 -7.210938 23.28125 -8.734375 C 23.894531 -9.828125 24.203125 -11.269531 24.203125 -13.0625 L 24.203125 -26.15625 L 35.1875 -26.15625 L 35.1875 -12.921875 C 35.1875 -8.804688 34.097656 -5.632812 31.921875 -3.40625 C 29.304688 -0.757812 24.800781 0.5625 18.40625 0.5625 Z M 18.40625 0.5625 "/></g></g><g style="fill:#333333;fill-opacity:1;"><g transform="translate(144.414987, 41.956516)"><path style="stroke:none" d="M 34.4375 0 L 2.921875 0 L 2.921875 -26.171875 L 33 -26.171875 L 33 -19.703125 L 13.90625 -19.703125 L 13.90625 -15.59375 L 30.046875 -15.59375 L 30.046875 -10.5625 L 13.90625 -10.5625 L 13.90625 -6.46875 L 34.4375 -6.46875 Z M 34.4375 0 "/></g></g><g style="fill:#8aa1b2;fill-opacity:1;"><g transform="translate(33.788291, 75.82478)"><path style="stroke:none" d="M 22.921875 0 L 1.9375 0 L 1.9375 -17.421875 L 21.953125 -17.421875 L 21.953125 -13.109375 L 9.25 -13.109375 L 9.25 -10.375 L 19.984375 -10.375 L 19.984375 -7.03125 L 9.25 -7.03125 L 9.25 -4.3125 L 22.921875 -4.3125 Z M 22.921875 0 "/></g></g><g style="fill:#8aa1b2;fill-opacity:1;"><g transform="translate(57.677447, 75.82478)"><path style="stroke:none" d="M 11.5 0.375 C 9.144531 0.375 7.25 0.125 5.8125 -0.375 C 4.375 -0.882812 3.273438 -1.582031 2.515625 -2.46875 C 1.765625 -3.351562 1.257812 -4.375 1 -5.53125 L 8.765625 -5.53125 C 9.335938 -4.707031 10.25 -4.296875 11.5 -4.296875 C 12.757812 -4.296875 13.675781 -4.707031 14.25 -5.53125 C 14.300781 -5.613281 14.328125 -5.6875 14.328125 -5.75 C 14.328125 -5.96875 14.035156 -6.128906 13.453125 -6.234375 C 12.878906 -6.347656 12.015625 -6.4375 10.859375 -6.5 C 9.410156 -6.5625 7.890625 -6.710938 6.296875 -6.953125 C 2.742188 -7.503906 0.96875 -8.929688 0.96875 -11.234375 C 0.96875 -11.429688 0.976562 -11.640625 1 -11.859375 C 1.257812 -13.015625 1.765625 -14.035156 2.515625 -14.921875 C 3.273438 -15.804688 4.375 -16.5 5.8125 -17 C 7.25 -17.507812 9.144531 -17.765625 11.5 -17.765625 C 13.863281 -17.765625 15.765625 -17.507812 17.203125 -17 C 18.640625 -16.5 19.734375 -15.804688 20.484375 -14.921875 C 21.242188 -14.035156 21.75 -13.015625 22 -11.859375 L 14.25 -11.859375 C 13.675781 -12.679688 12.757812 -13.09375 11.5 -13.09375 C 10.25 -13.09375 9.335938 -12.679688 8.765625 -11.859375 C 8.722656 -11.796875 8.703125 -11.734375 8.703125 -11.671875 C 8.703125 -11.484375 8.976562 -11.34375 9.53125 -11.25 C 10.082031 -11.15625 10.898438 -11.070312 11.984375 -11 C 13.066406 -10.9375 14.21875 -10.832031 15.4375 -10.6875 C 16.65625 -10.539062 17.796875 -10.285156 18.859375 -9.921875 C 19.929688 -9.566406 20.765625 -9.039062 21.359375 -8.34375 C 21.828125 -7.800781 22.0625 -7.113281 22.0625 -6.28125 C 22.0625 -6.039062 22.039062 -5.789062 22 -5.53125 C 21.75 -4.375 21.242188 -3.351562 20.484375 -2.46875 C 19.734375 -1.582031 18.640625 -0.882812 17.203125 -0.375 C 15.765625 0.125 13.863281 0.375 11.5 0.375 Z M 11.5 0.375 "/></g></g><g style="fill:#8aa1b2;fill-opacity:1;"><g transform="translate(80.716887, 75.82478)"><path style="stroke:none" d="M 11.5 0.375 C 9.144531 0.375 7.25 0.125 5.8125 -0.375 C 4.375 -0.882812 3.273438 -1.582031 2.515625 -2.46875 C 1.765625 -3.351562 1.257812 -4.375 1 -5.53125 L 8.765625 -5.53125 C 9.335938 -4.707031 10.25 -4.296875 11.5 -4.296875 C 12.757812 -4.296875 13.675781 -4.707031 14.25 -5.53125 C 14.300781 -5.613281 14.328125 -5.6875 14.328125 -5.75 C 14.328125 -5.96875 14.035156 -6.128906 13.453125 -6.234375 C 12.878906 -6.347656 12.015625 -6.4375 10.859375 -6.5 C 9.410156 -6.5625 7.890625 -6.710938 6.296875 -6.953125 C 2.742188 -7.503906 0.96875 -8.929688 0.96875 -11.234375 C 0.96875 -11.429688 0.976562 -11.640625 1 -11.859375 C 1.257812 -13.015625 1.765625 -14.035156 2.515625 -14.921875 C 3.273438 -15.804688 4.375 -16.5 5.8125 -17 C 7.25 -17.507812 9.144531 -17.765625 11.5 -17.765625 C 13.863281 -17.765625 15.765625 -17.507812 17.203125 -17 C 18.640625 -16.5 19.734375 -15.804688 20.484375 -14.921875 C 21.242188 -14.035156 21.75 -13.015625 22 -11.859375 L 14.25 -11.859375 C 13.675781 -12.679688 12.757812 -13.09375 11.5 -13.09375 C 10.25 -13.09375 9.335938 -12.679688 8.765625 -11.859375 C 8.722656 -11.796875 8.703125 -11.734375 8.703125 -11.671875 C 8.703125 -11.484375 8.976562 -11.34375 9.53125 -11.25 C 10.082031 -11.15625 10.898438 -11.070312 11.984375 -11 C 13.066406 -10.9375 14.21875 -10.832031 15.4375 -10.6875 C 16.65625 -10.539062 17.796875 -10.285156 18.859375 -9.921875 C 19.929688 -9.566406 20.765625 -9.039062 21.359375 -8.34375 C 21.828125 -7.800781 22.0625 -7.113281 22.0625 -6.28125 C 22.0625 -6.039062 22.039062 -5.789062 22 -5.53125 C 21.75 -4.375 21.242188 -3.351562 20.484375 -2.46875 C 19.734375 -1.582031 18.640625 -0.882812 17.203125 -0.375 C 15.765625 0.125 13.863281 0.375 11.5 0.375 Z M 11.5 0.375 "/></g></g><g style="fill:#8aa1b2;fill-opacity:1;"><g transform="translate(103.756327, 75.82478)"><path style="stroke:none" d="M 22.921875 0 L 1.9375 0 L 1.9375 -17.421875 L 21.953125 -17.421875 L 21.953125 -13.109375 L 9.25 -13.109375 L 9.25 -10.375 L 19.984375 -10.375 L 19.984375 -7.03125 L 9.25 -7.03125 L 9.25 -4.3125 L 22.921875 -4.3125 Z M 22.921875 0 "/></g></g><g style="fill:#8aa1b2;fill-opacity:1;"><g transform="translate(127.645483, 75.82478)"><path style="stroke:none" d="M 27.78125 0 L 19.09375 0 L 9.25 -11.78125 L 9.25 0 L 1.9375 0 L 1.9375 -17.421875 L 10.640625 -17.421875 L 20.484375 -5.6875 L 20.484375 -17.421875 L 27.78125 -17.421875 Z M 27.78125 0 "/></g></g><g style="fill:#8aa1b2;fill-opacity:1;"><g transform="translate(157.373398, 75.82478)"><path style="stroke:none" d="M 14.859375 0 L 7.546875 0 L 7.546875 -13.109375 L 0.734375 -13.109375 L 0.734375 -17.421875 L 21.671875 -17.421875 L 21.671875 -13.109375 L 14.859375 -13.109375 Z M 14.859375 0 "/></g></g><g style="fill:#8aa1b2;fill-opacity:1;"><g transform="translate(179.781627, 75.82478)"><path style="stroke:none" d="M 9.25 0 L 1.9375 0 L 1.9375 -17.421875 L 9.25 -17.421875 Z M 9.25 0 "/></g></g><g style="fill:#8aa1b2;fill-opacity:1;"><g transform="translate(190.973593, 75.82478)"><path style="stroke:none" d="M 29.25 0 L 21.84375 0 L 20.203125 -2.859375 L 9.21875 -2.859375 L 7.59375 0 L 0.1875 0 L 11.328125 -17.40625 L 18.109375 -17.40625 Z M 17.75 -7.15625 L 14.71875 -12.4375 L 11.6875 -7.15625 Z M 17.75 -7.15625 "/></g></g><g style="fill:#8aa1b2;fill-opacity:1;"><g transform="translate(220.41019, 75.82478)"><path style="stroke:none" d="M 22.28125 0 L 1.9375 0 L 1.9375 -17.421875 L 9.25 -17.421875 L 9.25 -4.3125 L 22.28125 -4.3125 Z M 22.28125 0 "/></g></g><g style="fill:#8aa1b2;fill-opacity:1;"><g transform="translate(243.170442, 75.82478)"><path style="stroke:none" d="M 11.5 0.375 C 9.144531 0.375 7.25 0.125 5.8125 -0.375 C 4.375 -0.882812 3.273438 -1.582031 2.515625 -2.46875 C 1.765625 -3.351562 1.257812 -4.375 1 -5.53125 L 8.765625 -5.53125 C 9.335938 -4.707031 10.25 -4.296875 11.5 -4.296875 C 12.757812 -4.296875 13.675781 -4.707031 14.25 -5.53125 C 14.300781 -5.613281 14.328125 -5.6875 14.328125 -5.75 C 14.328125 -5.96875 14.035156 -6.128906 13.453125 -6.234375 C 12.878906 -6.347656 12.015625 -6.4375 10.859375 -6.5 C 9.410156 -6.5625 7.890625 -6.710938 6.296875 -6.953125 C 2.742188 -7.503906 0.96875 -8.929688 0.96875 -11.234375 C 0.96875 -11.429688 0.976562 -11.640625 1 -11.859375 C 1.257812 -13.015625 1.765625 -14.035156 2.515625 -14.921875 C 3.273438 -15.804688 4.375 -16.5 5.8125 -17 C 7.25 -17.507812 9.144531 -17.765625 11.5 -17.765625 C 13.863281 -17.765625 15.765625 -17.507812 17.203125 -17 C 18.640625 -16.5 19.734375 -15.804688 20.484375 -14.921875 C 21.242188 -14.035156 21.75 -13.015625 22 -11.859375 L 14.25 -11.859375 C 13.675781 -12.679688 12.757812 -13.09375 11.5 -13.09375 C 10.25 -13.09375 9.335938 -12.679688 8.765625 -11.859375 C 8.722656 -11.796875 8.703125 -11.734375 8.703125 -11.671875 C 8.703125 -11.484375 8.976562 -11.34375 9.53125 -11.25 C 10.082031 -11.15625 10.898438 -11.070312 11.984375 -11 C 13.066406 -10.9375 14.21875 -10.832031 15.4375 -10.6875 C 16.65625 -10.539062 17.796875 -10.285156 18.859375 -9.921875 C 19.929688 -9.566406 20.765625 -9.039062 21.359375 -8.34375 C 21.828125 -7.800781 22.0625 -7.113281 22.0625 -6.28125 C 22.0625 -6.039062 22.039062 -5.789062 22 -5.53125 C 21.75 -4.375 21.242188 -3.351562 20.484375 -2.46875 C 19.734375 -1.582031 18.640625 -0.882812 17.203125 -0.375 C 15.765625 0.125 13.863281 0.375 11.5 0.375 Z M 11.5 0.375 "/></g></g><path style=" stroke:none;fill-rule:nonzero;fill:#8aa1b2;fill-opacity:1;" d="M 180.332031 29.644531 L 182.582031 29.644531 L 182.582031 31.894531 L 180.332031 31.894531 M 184.832031 29.644531 L 187.082031 29.644531 L 187.082031 31.894531 L 184.832031 31.894531 M 189.332031 29.644531 L 191.582031 29.644531 L 191.582031 31.894531 L 189.332031 31.894531 M 193.832031 29.644531 L 196.082031 29.644531 L 196.082031 31.894531 L 193.832031 31.894531 M 198.332031 29.644531 L 200.582031 29.644531 L 200.582031 31.894531 L 198.332031 31.894531 M 202.832031 29.644531 L 205.082031 29.644531 L 205.082031 31.894531 L 202.832031 31.894531 M 207.332031 29.644531 L 209.582031 29.644531 L 209.582031 31.894531 L 207.332031 31.894531 M 211.832031 29.644531 L 214.082031 29.644531 L 214.082031 31.894531 L 211.832031 31.894531 M 216.332031 29.644531 L 218.582031 29.644531 L 218.582031 31.894531 L 216.332031 31.894531 M 220.832031 29.644531 L 223.082031 29.644531 L 223.082031 31.894531 L 220.832031 31.894531 M 225.332031 29.644531 L 227.582031 29.644531 L 227.582031 31.894531 L 225.332031 31.894531 M 229.832031 29.644531 L 232.082031 29.644531 L 232.082031 31.894531 L 229.832031 31.894531 M 234.332031 29.644531 L 236.582031 29.644531 L 236.582031 31.894531 L 234.332031 31.894531 M 238.832031 29.644531 L 241.082031 29.644531 L 241.082031 31.894531 L 238.832031 31.894531 M 243.332031 29.644531 L 245.582031 29.644531 L 245.582031 31.894531 L 243.332031 31.894531 M 247.832031 29.644531 L 250.082031 29.644531 L 250.082031 31.894531 L 247.832031 31.894531 M 252.332031 29.644531 L 254.582031 29.644531 L 254.582031 31.894531 L 252.332031 31.894531 M 256.832031 29.644531 L 259.082031 29.644531 L 259.082031 31.894531 L 256.832031 31.894531 M 261.332031 29.644531 L 263.582031 29.644531 L 263.582031 31.894531 L 261.332031 31.894531 M 265.832031 29.644531 L 266.210938 29.644531 L 266.210938 31.894531 L 265.832031 31.894531 "/><path style="fill:none;stroke-width:3;stroke-linecap:butt;stroke-linejoin:miter;stroke:#333333;stroke-opacity:1;stroke-miterlimit:4;" d="M 9.751029 1.49751 L 300.146878 1.49751 " transform="matrix(0.75,0.000000000000000034,-0.000000000000000034,0.75,33.788291,81.537024)"/><path style="fill:none;stroke-width:3;stroke-linecap:round;stroke-linejoin:round;stroke:#333333;stroke-opacity:1;stroke-miterlimit:4;" d="M 1.501029 1.49751 L 6.001029 -3.002491 L 10.501029 1.49751 L 6.001029 5.99751 Z M 1.501029 1.49751 " transform="matrix(0.75,0.000000000000000034,-0.000000000000000034,0.75,33.788291,81.537024)"/><path style="fill:none;stroke-width:3;stroke-linecap:round;stroke-linejoin:round;stroke:#333333;stroke-opacity:1;stroke-miterlimit:4;" d="M 308.396878 1.49751 L 303.896878 -3.002491 L 299.396878 1.49751 L 303.896878 5.99751 Z M 308.396878 1.49751 " transform="matrix(0.75,0.000000000000000034,-0.000000000000000034,0.75,33.788291,81.537024)"/><path style="fill:none;stroke-width:3;stroke-linecap:butt;stroke-linejoin:miter;stroke:#333333;stroke-opacity:1;stroke-miterlimit:4;" d="M 9.751029 1.502491 L 300.146878 1.502491 " transform="matrix(0.75,0,0,0.75,33.788291,6.212975)"/><path style="fill:none;stroke-width:3;stroke-linecap:round;stroke-linejoin:round;stroke:#333333;stroke-opacity:1;stroke-miterlimit:4;" d="M 1.501029 1.502491 L 6.001029 -2.997509 L 10.501029 1.502491 L 6.001029 6.002492 Z M 1.501029 1.502491 " transform="matrix(0.75,0,0,0.75,33.788291,6.212975)"/><path style="fill:none;stroke-width:3;stroke-linecap:round;stroke-linejoin:round;stroke:#333333;stroke-opacity:1;stroke-miterlimit:4;" d="M 308.396878 1.502491 L 303.896878 -2.997509 L 299.396878 1.502491 L 303.896878 6.002492 Z M 308.396878 1.502491 " transform="matrix(0.75,0,0,0.75,33.788291,6.212975)"/></g></svg>